<svg width="32" height="32" viewBox="0 0 32 32" fill="none" xmlns="http://www.w3.org/2000/svg">
  <!-- Background rounded square -->
  <rect width="32" height="32" rx="7" fill="#00D885"/>
  
  <!-- Open book icon -->
  <g transform="translate(6, 8)">
    <!-- Left page -->
    <path d="M0 2C0 2 4 0 8 2C8 2 8 14 8 14C8 14 4 12 0 14C0 14 0 2 0 2Z" 
          fill="white"/>
    
    <!-- Right page -->
    <path d="M12 2C12 2 16 0 20 2C20 2 20 14 20 14C20 14 16 12 12 14C12 14 12 2 12 2Z" 
          fill="white"/>
    
    <!-- Center line/binding -->
    <line x1="10" y1="2" x2="10" y2="14" stroke="#00D885" stroke-width="1"/>
  </g>
</svg>
